ply
format ascii 1.0
comment Created by Blender 2.80 (sub 49) - www.blender.org, source file: 'PlaneModel.blend'
element vertex 48
property float x
property float y
property float z
property float nx
property float ny
property float nz
property float s
property float t
element face 24
property list uchar uint vertex_indices
end_header
-0.500000 0.500000 0.005500 0.000000 0.000000 1.000000 0.000100 0.999900
0.500000 -0.500000 0.005500 0.000000 0.000000 1.000000 0.999900 0.000100
0.500000 0.500000 0.005500 0.000000 0.000000 1.000000 0.999900 0.999900
0.500000 -0.500000 -0.005000 0.000000 -0.000000 -1.000000 0.999900 0.000100
-0.500000 0.500000 -0.005000 0.000000 -0.000000 -1.000000 0.000100 0.999900
0.500000 0.500000 -0.005000 0.000000 -0.000000 -1.000000 0.999900 0.999900
0.500000 -0.500000 -0.004500 -0.000000 -0.000000 -1.000000 0.999900 0.000100
-0.500000 0.500000 -0.004500 -0.000000 -0.000000 -1.000000 0.000100 0.999900
0.500000 0.500000 -0.004500 -0.000000 -0.000000 -1.000000 0.999900 0.999900
-0.500000 0.500000 0.005000 -0.000000 0.000000 1.000000 0.000100 0.999900
0.500000 -0.500000 0.005000 -0.000000 0.000000 1.000000 0.999900 0.000100
0.500000 0.500000 0.005000 -0.000000 0.000000 1.000000 0.999900 0.999900
0.500000 -0.500000 0.005500 1.000000 -0.000000 0.000000 0.999900 0.000100
0.500000 0.500000 -0.004500 1.000000 -0.000000 0.000000 0.999900 0.999900
0.500000 0.500000 0.005500 1.000000 -0.000000 0.000000 0.999900 0.999900
0.500000 0.500000 0.005500 -0.000000 1.000000 0.000000 0.999900 0.999900
-0.500000 0.500000 -0.004500 -0.000000 1.000000 0.000000 0.000100 0.999900
-0.500000 0.500000 0.005500 -0.000000 1.000000 0.000000 0.000100 0.999900
-0.500000 0.500000 0.005500 -1.000000 0.000000 0.000000 0.000100 0.999900
-0.500000 -0.500000 -0.004500 -1.000000 0.000000 0.000000 0.000100 0.000100
-0.500000 -0.500000 0.005500 -1.000000 0.000000 0.000000 0.000100 0.000100
-0.500000 -0.500000 0.005500 -0.000000 -1.000000 -0.000000 0.000100 0.000100
0.500000 -0.500000 -0.004500 -0.000000 -1.000000 -0.000000 0.999900 0.000100
0.500000 -0.500000 0.005500 -0.000000 -1.000000 -0.000000 0.999900 0.000100
0.500000 0.500000 -0.005000 1.000000 -0.000000 0.000000 0.999900 0.999900
0.500000 -0.500000 0.005000 1.000000 -0.000000 0.000000 0.999900 0.000100
0.500000 -0.500000 -0.005000 1.000000 -0.000000 0.000000 0.999900 0.000100
-0.500000 0.500000 -0.005000 0.000000 1.000000 -0.000000 0.000100 0.999900
0.500000 0.500000 0.005000 0.000000 1.000000 -0.000000 0.999900 0.999900
0.500000 0.500000 -0.005000 0.000000 1.000000 -0.000000 0.999900 0.999900
-0.500000 -0.500000 -0.005000 -1.000000 0.000000 0.000000 0.000100 0.000100
-0.500000 0.500000 0.005000 -1.000000 0.000000 0.000000 0.000100 0.999900
-0.500000 0.500000 -0.005000 -1.000000 0.000000 0.000000 0.000100 0.999900
0.500000 -0.500000 -0.005000 0.000000 -1.000000 0.000000 0.999900 0.000100
-0.500000 -0.500000 0.005000 0.000000 -1.000000 0.000000 0.000100 0.000100
-0.500000 -0.500000 -0.005000 0.000000 -1.000000 0.000000 0.000100 0.000100
-0.500000 -0.500000 0.005500 0.000000 -0.000000 1.000000 0.000100 0.000100
-0.500000 -0.500000 -0.005000 0.000000 -0.000000 -1.000000 0.000100 0.000100
-0.500000 -0.500000 -0.004500 0.000000 -0.000000 -1.000000 0.000100 0.000100
-0.500000 -0.500000 0.005000 -0.000000 0.000000 1.000000 0.000100 0.000100
0.500000 -0.500000 -0.004500 1.000000 -0.000000 0.000000 0.999900 0.000100
0.500000 0.500000 -0.004500 0.000000 1.000000 0.000000 0.999900 0.999900
-0.500000 0.500000 -0.004500 -1.000000 0.000000 0.000000 0.000100 0.999900
-0.500000 -0.500000 -0.004500 0.000000 -1.000000 0.000000 0.000100 0.000100
0.500000 0.500000 0.005000 1.000000 -0.000000 0.000000 0.999900 0.999900
-0.500000 0.500000 0.005000 0.000000 1.000000 0.000000 0.000100 0.999900
-0.500000 -0.500000 0.005000 -1.000000 0.000000 0.000000 0.000100 0.000100
0.500000 -0.500000 0.005000 0.000000 -1.000000 0.000000 0.999900 0.000100
3 0 1 2
3 3 4 5
3 6 7 8
3 9 10 11
3 12 13 14
3 15 16 17
3 18 19 20
3 21 22 23
3 24 25 26
3 27 28 29
3 30 31 32
3 33 34 35
3 0 36 1
3 3 37 4
3 6 38 7
3 9 39 10
3 12 40 13
3 15 41 16
3 18 42 19
3 21 43 22
3 24 44 25
3 27 45 28
3 30 46 31
3 33 47 34
