ply
format ascii 1.0
comment Created by Blender 2.80 (sub 74) - www.blender.org, source file: 'PlaneModel.blend'
element vertex 8
property float x
property float y
property float z
property float nx
property float ny
property float nz
property float s
property float t
element face 4
property list uchar uint vertex_indices
end_header
0.500000 0.000000 0.500000 0.000000 -1.000000 0.000000 0.999900 0.999900
-0.500000 0.000000 0.500000 0.000000 -1.000000 0.000000 0.000100 0.999900
-0.500000 0.000000 -0.500000 0.000000 -1.000000 0.000000 0.000100 0.000100
0.500000 0.000000 -0.500000 0.000000 -1.000000 0.000000 0.999900 0.000100
0.500000 -0.000000 0.500000 0.000000 1.000000 0.000000 0.999900 0.999900
0.500000 -0.000000 -0.500000 0.000000 1.000000 0.000000 0.999900 0.000100
-0.500000 0.000000 -0.500000 0.000000 1.000000 0.000000 0.000100 0.000100
-0.500000 0.000000 0.500000 0.000000 1.000000 0.000000 0.000100 0.999900
3 0 1 2
3 0 2 3
3 4 5 6
3 4 6 7
